# xmcd
# 
# Track frame offsets:
#     150
#     14590
#     28883
#     45898
#     57784
#     77996
#     93656
#     113733
#     132548
#     146737
#     166506
#     185923
# 
# Disc length: 2833
# 
# Revision: 2
# Processed by: cddbd v1.5.2PL0 Copyright (c) Steve Scherf et al.
# Submitted via: BonkEnc v1.0.8
# 
DISCID=a40b0f0c
DTITLE=どぶウサギ - 幻葬旋律曲　Necromanza
DYEAR=2005
DGENRE=東方
TTITLE0=無何有の郷　〜 Snowed Mountain
TTITLE1=雪化結晶　〜 Crystallized Silver
TTITLE2=遠野幻想郷物語
TTITLE3=てぃあおいえつぉん
TTITLE4=人形裁判　〜 人の形弄びし少女
TTITLE5=騒霊樂団　〜 Phantom Ensemble
TTITLE6=東方妖妖夢　〜 the Ancient Temple
TTITLE7=広有射怪鳥事　〜 Till When?
TTITLE8=究極の真実　〜 the Ultimate Truth
TTITLE9=優雅に咲かせ、墨染の桜　〜 Border of Life
TTITLE10=さくら、さくら。〜 Japanize Dream
TTITLE11=少女幻葬戦慄曲　〜　Necro Fantasia
EXTD=
EXTT0=
EXTT1=
EXTT2=
EXTT3=
EXTT4=
EXTT5=
EXTT6=
EXTT7=
EXTT8=
EXTT9=
EXTT10=
EXTT11=
PLAYORDER=
